<svg width="512" height="512" viewBox="0 0 512 512" fill="none" xmlns="http://www.w3.org/2000/svg">
<g clip-path="url(#clip0_4_3)">
<rect x="128" y="188" width="256" height="138" fill="black"/>
<path d="M256 512L0 312L512 312L256 512Z" fill="black"/>
<path d="M404 0L512 312H404H296L404 0Z" fill="black"/>
<path d="M108 0L216 312H108H0L108 0Z" fill="black"/>
<path d="M48 295.25V284.5H123.25V295.25H48ZM48 316.75V306H123.25V316.75H48ZM144.75 284.5V273.75H155.5V263H187.75V273.75H198.5V284.5H177V273.75H166.25V284.5H144.75ZM241.5 338.25V316.75H263V338.25H241.5ZM316.75 284.5V273.75H327.5V263H359.75V273.75H370.5V284.5H349V273.75H338.25V284.5H316.75ZM392 295.25V284.5H467.25V295.25H392ZM392 316.75V306H467.25V316.75H392Z" fill="white"/>
</g>
<defs>
<clipPath id="clip0_4_3">
<rect width="512" height="512" fill="white"/>
</clipPath>
</defs>
</svg>
